# xmcd CD database file
#
# Track frame offsets:
#	150
#	13397
#	25797
#	39760
#	48195
#	59885
#	71342
#	82637
#	93157
#	106277
#	116885
#	130302
#	140712
#	151327
#	165427
#	176037
#	188157
#	202970
#	215255
#	227525
#	239542
#	251607
#	262565
#
# Disc length: 3698 seconds
#
# Revision: 1
# Processed by: cddbd v1.5.2PL0 Copyright (c) Steve Scherf et al.
# Submitted via: CDex 1.51
#
DISCID=2e0e7017
DTITLE=Nat King Cole - Vol.156 - Nat King Cole 1949 - 1960
DYEAR=1965
DGENRE=Jazz
TTITLE0=Beale Street Blues
TTITLE1=Careless Love
TTITLE2=Memphis Blues
TTITLE3=Almost Like Being In Love
TTITLE4=You Stepped Out Of A Dream
TTITLE5=Orange Colored Sky
TTITLE6=This Can't Be Love
TTITLE7=Get To Gettin'
TTITLE8=Jam-Bo
TTITLE9=It's Crazy
TTITLE10=Funny (Not Much)
TTITLE11=Where Were You
TTITLE12=That's My Girl
TTITLE13=Summer Is A Comin' In
TTITLE14=Paint Yourself A Rainbow
TTITLE15=Destination Moon
TTITLE16=Lush Life
TTITLE17=Lilian
TTITLE18=Wish I Were Somebody Else
TTITLE19=Who Do You Know In Heaven (That Made You The Angel You Are)
TTITLE20=Joe Turner's Blues
TTITLE21=St. Louis Blues
TTITLE22=Where Or When
EXTD=YEAR: 1965
EXTT0=
EXTT1=
EXTT2=
EXTT3=
EXTT4=
EXTT5=
EXTT6=
EXTT7=
EXTT8=
EXTT9=
EXTT10=
EXTT11=
EXTT12=
EXTT13=
EXTT14=
EXTT15=
EXTT16=
EXTT17=
EXTT18=
EXTT19=
EXTT20=
EXTT21=
EXTT22=
PLAYORDER=
